<?xml version="1.0" encoding="utf-8" ?>
<svg baseProfile="full" height="300" version="1.1" width="300" xmlns="http://www.w3.org/2000/svg" xmlns:ev="http://www.w3.org/2001/xml-events" xmlns:xlink="http://www.w3.org/1999/xlink"><defs /><rect fill="#FFFCF8" height="300" width="300" x="0" y="0" /><rect fill="#FFFFB0" height="240" stroke="#800000" stroke-dasharray="none" stroke-linecap="round" stroke-linejoin="round" stroke-width="2.0" width="180" x="60" y="20" /><text dominant-baseline="middle" fill="#000000" font-family="Times New Roman" font-size="20.0" text-anchor="start" transform="rotate(0 68 40)" x="68" y="40">VCC</text><text dominant-baseline="auto" fill="#000000" font-family="Times New Roman" font-size="20.0" text-anchor="middle" transform="rotate(0 40 38)" x="40" y="38">1</text><line stroke="#000000" stroke-linecap="round" stroke-width="2.0" x1="60" x2="20" y1="40" y2="40" /><text dominant-baseline="middle" fill="#000000" font-family="Times New Roman" font-size="20.0" text-anchor="start" transform="rotate(0 68 220)" x="68" y="220">GND1</text><text dominant-baseline="auto" fill="#000000" font-family="Times New Roman" font-size="20.0" text-anchor="middle" transform="rotate(0 40 218)" x="40" y="218">2</text><line stroke="#000000" stroke-linecap="round" stroke-width="2.0" x1="60" x2="20" y1="220" y2="220" /><text dominant-baseline="middle" fill="#000000" font-family="Times New Roman" font-size="20.0" text-anchor="start" transform="rotate(0 68 80)" x="68" y="80">INA</text><text dominant-baseline="auto" fill="#000000" font-family="Times New Roman" font-size="20.0" text-anchor="middle" transform="rotate(0 40 78)" x="40" y="78">3</text><line stroke="#000000" stroke-linecap="round" stroke-width="2.0" x1="60" x2="20" y1="80" y2="80" /><text dominant-baseline="middle" fill="#000000" font-family="Times New Roman" font-size="20.0" text-anchor="start" transform="rotate(0 68 100)" x="68" y="100">INB</text><text dominant-baseline="auto" fill="#000000" font-family="Times New Roman" font-size="20.0" text-anchor="middle" transform="rotate(0 40 98)" x="40" y="98">4</text><line stroke="#000000" stroke-linecap="round" stroke-width="2.0" x1="60" x2="20" y1="100" y2="100" /><text dominant-baseline="middle" fill="#000000" font-family="Times New Roman" font-size="20.0" text-anchor="start" transform="rotate(0 68 120)" x="68" y="120">INC</text><text dominant-baseline="auto" fill="#000000" font-family="Times New Roman" font-size="20.0" text-anchor="middle" transform="rotate(0 40 118)" x="40" y="118">5</text><line stroke="#000000" stroke-linecap="round" stroke-width="2.0" x1="60" x2="20" y1="120" y2="120" /><text dominant-baseline="middle" fill="#000000" font-family="Times New Roman" font-size="20.0" text-anchor="start" transform="rotate(0 68 140)" x="68" y="140">IND</text><text dominant-baseline="auto" fill="#000000" font-family="Times New Roman" font-size="20.0" text-anchor="middle" transform="rotate(0 40 138)" x="40" y="138">6</text><line stroke="#000000" stroke-linecap="round" stroke-width="2.0" x1="60" x2="20" y1="140" y2="140" /><text dominant-baseline="middle" fill="#000000" font-family="Times New Roman" font-size="20.0" text-anchor="start" transform="rotate(0 68 180)" x="68" y="180">NC</text><text dominant-baseline="auto" fill="#000000" font-family="Times New Roman" font-size="20.0" text-anchor="middle" transform="rotate(0 40 178)" x="40" y="178">7</text><line stroke="#000000" stroke-linecap="round" stroke-width="2.0" x1="60" x2="20" y1="180" y2="180" /><text dominant-baseline="middle" fill="#000000" font-family="Times New Roman" font-size="20.0" text-anchor="start" transform="rotate(0 68 240)" x="68" y="240">GND1</text><text dominant-baseline="auto" fill="#000000" font-family="Times New Roman" font-size="20.0" text-anchor="middle" transform="rotate(0 40 238)" x="40" y="238">8</text><line stroke="#000000" stroke-linecap="round" stroke-width="2.0" x1="60" x2="20" y1="240" y2="240" /><text dominant-baseline="middle" fill="#000000" font-family="Times New Roman" font-size="20.0" text-anchor="end" transform="rotate(0 232 240)" x="232" y="240">GND2</text><text dominant-baseline="auto" fill="#000000" font-family="Times New Roman" font-size="20.0" text-anchor="middle" transform="rotate(0 260 238)" x="260" y="238">9</text><line stroke="#000000" stroke-linecap="round" stroke-width="2.0" x1="240" x2="280" y1="240" y2="240" /><text dominant-baseline="middle" fill="#000000" font-family="Times New Roman" font-size="20.0" text-anchor="end" transform="rotate(0 232 180)" x="232" y="180">SEL</text><text dominant-baseline="auto" fill="#000000" font-family="Times New Roman" font-size="20.0" text-anchor="middle" transform="rotate(0 260 178)" x="260" y="178">10</text><line stroke="#000000" stroke-linecap="round" stroke-width="2.0" x1="240" x2="280" y1="180" y2="180" /><text dominant-baseline="middle" fill="#000000" font-family="Times New Roman" font-size="20.0" text-anchor="end" transform="rotate(0 232 140)" x="232" y="140">OUTD</text><text dominant-baseline="auto" fill="#000000" font-family="Times New Roman" font-size="20.0" text-anchor="middle" transform="rotate(0 260 138)" x="260" y="138">11</text><line stroke="#000000" stroke-linecap="round" stroke-width="2.0" x1="240" x2="280" y1="140" y2="140" /><text dominant-baseline="middle" fill="#000000" font-family="Times New Roman" font-size="20.0" text-anchor="end" transform="rotate(0 232 120)" x="232" y="120">OUTC</text><text dominant-baseline="auto" fill="#000000" font-family="Times New Roman" font-size="20.0" text-anchor="middle" transform="rotate(0 260 118)" x="260" y="118">12</text><line stroke="#000000" stroke-linecap="round" stroke-width="2.0" x1="240" x2="280" y1="120" y2="120" /><text dominant-baseline="middle" fill="#000000" font-family="Times New Roman" font-size="20.0" text-anchor="end" transform="rotate(0 232 100)" x="232" y="100">OUTB</text><text dominant-baseline="auto" fill="#000000" font-family="Times New Roman" font-size="20.0" text-anchor="middle" transform="rotate(0 260 98)" x="260" y="98">13</text><line stroke="#000000" stroke-linecap="round" stroke-width="2.0" x1="240" x2="280" y1="100" y2="100" /><text dominant-baseline="middle" fill="#000000" font-family="Times New Roman" font-size="20.0" text-anchor="end" transform="rotate(0 232 80)" x="232" y="80">OUTA</text><text dominant-baseline="auto" fill="#000000" font-family="Times New Roman" font-size="20.0" text-anchor="middle" transform="rotate(0 260 78)" x="260" y="78">14</text><line stroke="#000000" stroke-linecap="round" stroke-width="2.0" x1="240" x2="280" y1="80" y2="80" /><text dominant-baseline="middle" fill="#000000" font-family="Times New Roman" font-size="20.0" text-anchor="end" transform="rotate(0 232 220)" x="232" y="220">GND2</text><text dominant-baseline="auto" fill="#000000" font-family="Times New Roman" font-size="20.0" text-anchor="middle" transform="rotate(0 260 218)" x="260" y="218">15</text><line stroke="#000000" stroke-linecap="round" stroke-width="2.0" x1="240" x2="280" y1="220" y2="220" /><text dominant-baseline="middle" fill="#000000" font-family="Times New Roman" font-size="20.0" text-anchor="end" transform="rotate(0 232 40)" x="232" y="40">VOUT</text><text dominant-baseline="auto" fill="#000000" font-family="Times New Roman" font-size="20.0" text-anchor="middle" transform="rotate(0 260 38)" x="260" y="38">16</text><line stroke="#000000" stroke-linecap="round" stroke-width="2.0" x1="240" x2="280" y1="40" y2="40" /><text dominant-baseline="text-after-edge" fill="#000080" font-size="20.0" text-anchor="start" x="60" y="280">U?</text></svg>