<?xml version="1.0" encoding="utf-8" ?>
<svg baseProfile="full" height="300" version="1.1" width="300" xmlns="http://www.w3.org/2000/svg" xmlns:ev="http://www.w3.org/2001/xml-events" xmlns:xlink="http://www.w3.org/1999/xlink"><defs /><rect fill="#6D6A69" height="300" width="300" x="0" y="0" /><g id="Visible_Grid_1" /><g id="Visible_Grid_2" /><g id="Drill_Drawing" /><g id="Mechanical_1" /><g id="Mechanical_2" /><g id="Mechanical_3" /><g id="Mechanical_4" /><g id="Mechanical_5" /><g id="Mechanical_6" /><g id="Mechanical_7" /><g id="Mechanical_8" /><g id="Mechanical_9" /><g id="Mechanical_10" /><g id="Mechanical_11"><path d="M 77.0,202.0 A 9,9 0 1,0 76.99999550000038,202.0089999985" fill="none" stroke="#008000" stroke-linecap="round" stroke-linejoin="round" stroke-width="1.4465478857979377" /><line stroke="#008000" stroke-linecap="round" stroke-linejoin="round" stroke-width="1.4465478857979377" x1="179" x2="187" y1="52" y2="52" /><line stroke="#008000" stroke-linecap="round" stroke-linejoin="round" stroke-width="1.4465478857979377" x1="203" x2="211" y1="52" y2="52" /><line stroke="#008000" stroke-linecap="round" stroke-linejoin="round" stroke-width="1.4465478857979377" x1="227" x2="235" y1="52" y2="52" /><line stroke="#008000" stroke-linecap="round" stroke-linejoin="round" stroke-width="1.4465478857979377" x1="187" x2="187" y1="78" y2="52" /><line stroke="#008000" stroke-linecap="round" stroke-linejoin="round" stroke-width="1.4465478857979377" x1="227" x2="227" y1="78" y2="52" /><line stroke="#008000" stroke-linecap="round" stroke-linejoin="round" stroke-width="1.4465478857979377" x1="203" x2="203" y1="78" y2="52" /><line stroke="#008000" stroke-linecap="round" stroke-linejoin="round" stroke-width="1.4465478857979377" x1="211" x2="211" y1="78" y2="52" /><line stroke="#008000" stroke-linecap="round" stroke-linejoin="round" stroke-width="1.4465478857979377" x1="235" x2="235" y1="78" y2="52" /><line stroke="#008000" stroke-linecap="round" stroke-linejoin="round" stroke-width="1.4465478857979377" x1="179" x2="179" y1="78" y2="52" /><line stroke="#008000" stroke-linecap="round" stroke-linejoin="round" stroke-width="1.4465478857979377" x1="162" x2="162" y1="78" y2="52" /><line stroke="#008000" stroke-linecap="round" stroke-linejoin="round" stroke-width="1.4465478857979377" x1="244" x2="244" y1="221" y2="78" /><line stroke="#008000" stroke-linecap="round" stroke-linejoin="round" stroke-width="1.4465478857979377" x1="235" x2="235" y1="247" y2="221" /><line stroke="#008000" stroke-linecap="round" stroke-linejoin="round" stroke-width="1.4465478857979377" x1="227" x2="227" y1="247" y2="221" /><line stroke="#008000" stroke-linecap="round" stroke-linejoin="round" stroke-width="1.4465478857979377" x1="211" x2="211" y1="247" y2="221" /><line stroke="#008000" stroke-linecap="round" stroke-linejoin="round" stroke-width="1.4465478857979377" x1="203" x2="203" y1="247" y2="221" /><line stroke="#008000" stroke-linecap="round" stroke-linejoin="round" stroke-width="1.4465478857979377" x1="187" x2="187" y1="247" y2="221" /><line stroke="#008000" stroke-linecap="round" stroke-linejoin="round" stroke-width="1.4465478857979377" x1="179" x2="179" y1="247" y2="221" /><line stroke="#008000" stroke-linecap="round" stroke-linejoin="round" stroke-width="1.4465478857979377" x1="162" x2="162" y1="247" y2="221" /><line stroke="#008000" stroke-linecap="round" stroke-linejoin="round" stroke-width="1.4465478857979377" x1="227" x2="235" y1="247" y2="247" /><line stroke="#008000" stroke-linecap="round" stroke-linejoin="round" stroke-width="1.4465478857979377" x1="203" x2="211" y1="247" y2="247" /><line stroke="#008000" stroke-linecap="round" stroke-linejoin="round" stroke-width="1.4465478857979377" x1="179" x2="187" y1="247" y2="247" /><line stroke="#008000" stroke-linecap="round" stroke-linejoin="round" stroke-width="1.4465478857979377" x1="155" x2="162" y1="52" y2="52" /><line stroke="#008000" stroke-linecap="round" stroke-linejoin="round" stroke-width="1.4465478857979377" x1="131" x2="138" y1="52" y2="52" /><line stroke="#008000" stroke-linecap="round" stroke-linejoin="round" stroke-width="1.4465478857979377" x1="107" x2="114" y1="52" y2="52" /><line stroke="#008000" stroke-linecap="round" stroke-linejoin="round" stroke-width="1.4465478857979377" x1="83" x2="90" y1="52" y2="52" /><line stroke="#008000" stroke-linecap="round" stroke-linejoin="round" stroke-width="1.4465478857979377" x1="59" x2="66" y1="52" y2="52" /><line stroke="#008000" stroke-linecap="round" stroke-linejoin="round" stroke-width="1.4465478857979377" x1="155" x2="155" y1="78" y2="52" /><line stroke="#008000" stroke-linecap="round" stroke-linejoin="round" stroke-width="1.4465478857979377" x1="138" x2="138" y1="78" y2="52" /><line stroke="#008000" stroke-linecap="round" stroke-linejoin="round" stroke-width="1.4465478857979377" x1="131" x2="131" y1="78" y2="52" /><line stroke="#008000" stroke-linecap="round" stroke-linejoin="round" stroke-width="1.4465478857979377" x1="114" x2="114" y1="78" y2="52" /><line stroke="#008000" stroke-linecap="round" stroke-linejoin="round" stroke-width="1.4465478857979377" x1="107" x2="107" y1="78" y2="52" /><line stroke="#008000" stroke-linecap="round" stroke-linejoin="round" stroke-width="1.4465478857979377" x1="90" x2="90" y1="78" y2="52" /><line stroke="#008000" stroke-linecap="round" stroke-linejoin="round" stroke-width="1.4465478857979377" x1="83" x2="83" y1="78" y2="52" /><line stroke="#008000" stroke-linecap="round" stroke-linejoin="round" stroke-width="1.4465478857979377" x1="66" x2="66" y1="78" y2="52" /><line stroke="#008000" stroke-linecap="round" stroke-linejoin="round" stroke-width="1.4465478857979377" x1="59" x2="59" y1="78" y2="52" /><line stroke="#008000" stroke-linecap="round" stroke-linejoin="round" stroke-width="1.4465478857979377" x1="49" x2="244" y1="78" y2="78" /><line stroke="#008000" stroke-linecap="round" stroke-linejoin="round" stroke-width="1.4465478857979377" x1="49" x2="49" y1="221" y2="78" /><line stroke="#008000" stroke-linecap="round" stroke-linejoin="round" stroke-width="1.4465478857979377" x1="49" x2="244" y1="221" y2="221" /><line stroke="#008000" stroke-linecap="round" stroke-linejoin="round" stroke-width="1.4465478857979377" x1="155" x2="155" y1="247" y2="221" /><line stroke="#008000" stroke-linecap="round" stroke-linejoin="round" stroke-width="1.4465478857979377" x1="138" x2="138" y1="247" y2="221" /><line stroke="#008000" stroke-linecap="round" stroke-linejoin="round" stroke-width="1.4465478857979377" x1="131" x2="131" y1="247" y2="221" /><line stroke="#008000" stroke-linecap="round" stroke-linejoin="round" stroke-width="1.4465478857979377" x1="114" x2="114" y1="247" y2="221" /><line stroke="#008000" stroke-linecap="round" stroke-linejoin="round" stroke-width="1.4465478857979377" x1="59" x2="59" y1="247" y2="221" /><line stroke="#008000" stroke-linecap="round" stroke-linejoin="round" stroke-width="1.4465478857979377" x1="66" x2="66" y1="247" y2="221" /><line stroke="#008000" stroke-linecap="round" stroke-linejoin="round" stroke-width="1.4465478857979377" x1="90" x2="90" y1="247" y2="221" /><line stroke="#008000" stroke-linecap="round" stroke-linejoin="round" stroke-width="1.4465478857979377" x1="83" x2="83" y1="247" y2="221" /><line stroke="#008000" stroke-linecap="round" stroke-linejoin="round" stroke-width="1.4465478857979377" x1="107" x2="107" y1="247" y2="221" /><line stroke="#008000" stroke-linecap="round" stroke-linejoin="round" stroke-width="1.4465478857979377" x1="155" x2="162" y1="247" y2="247" /><line stroke="#008000" stroke-linecap="round" stroke-linejoin="round" stroke-width="1.4465478857979377" x1="131" x2="138" y1="247" y2="247" /><line stroke="#008000" stroke-linecap="round" stroke-linejoin="round" stroke-width="1.4465478857979377" x1="107" x2="114" y1="247" y2="247" /><line stroke="#008000" stroke-linecap="round" stroke-linejoin="round" stroke-width="1.4465478857979377" x1="59" x2="66" y1="247" y2="247" /><line stroke="#008000" stroke-linecap="round" stroke-linejoin="round" stroke-width="1.4465478857979377" x1="83" x2="90" y1="247" y2="247" /></g><g id="Mechanical_12" /><g id="Mechanical_13" /><g id="Mechanical_14" /><g id="Mechanical_15"><line stroke="#008000" stroke-linecap="round" stroke-linejoin="round" stroke-width="0.48218262859931255" x1="44" x2="44" y1="262" y2="37" /><line stroke="#008000" stroke-linecap="round" stroke-linejoin="round" stroke-width="0.48218262859931255" x1="44" x2="249" y1="262" y2="262" /><line stroke="#008000" stroke-linecap="round" stroke-linejoin="round" stroke-width="0.48218262859931255" x1="249" x2="249" y1="262" y2="37" /><line stroke="#008000" stroke-linecap="round" stroke-linejoin="round" stroke-width="0.48218262859931255" x1="44" x2="249" y1="37" y2="37" /></g><g id="Mechanical_16"><line stroke="#000000" stroke-linecap="round" stroke-linejoin="round" stroke-width="0.48218262859931255" x1="147" x2="147" y1="159" y2="140" /><line stroke="#000000" stroke-linecap="round" stroke-linejoin="round" stroke-width="0.48218262859931255" x1="137" x2="156" y1="150" y2="150" /><text dominant-baseline="central" fill="#000000" font-family="UHF" font-size="28" text-anchor="middle" transform="rotate(-0.0 150 137)" x="150" y="137">.Designator</text></g><g id="Keep-Out_Layer" /><g id="Drill_Guide" /><g id="Internal_Plane_1" /><g id="Internal_Plane_2" /><g id="Internal_Plane_3" /><g id="Internal_Plane_4" /><g id="Internal_Plane_5" /><g id="Internal_Plane_6" /><g id="Internal_Plane_7" /><g id="Internal_Plane_8" /><g id="Internal_Plane_9" /><g id="Internal_Plane_10" /><g id="Internal_Plane_11" /><g id="Internal_Plane_12" /><g id="Internal_Plane_13" /><g id="Internal_Plane_14" /><g id="Internal_Plane_15" /><g id="Internal_Plane_16" /><g id="Bottom_Solder" /><g id="Top_Solder"><rect fill="#800080" height="35" transform="rotate(-0.0 62.77053459105851 242.54487794270034)" width="15" x="55" y="225" /><rect fill="#800080" height="35" transform="rotate(-0.0 86.87966602102415 242.54487794270034)" width="15" x="79" y="225" /><rect fill="#800080" height="35" transform="rotate(-0.0 110.98879745098976 242.54487794270034)" width="15" x="103" y="225" /><rect fill="#800080" height="35" transform="rotate(-0.0 135.0979288809554 242.54487794270034)" width="15" x="127" y="225" /><rect fill="#800080" height="35" transform="rotate(-0.0 159.207060310921 242.54487794270034)" width="15" x="151" y="225" /><rect fill="#800080" height="35" transform="rotate(-0.0 183.31619174088667 242.54487794270034)" width="15" x="175" y="225" /><rect fill="#800080" height="35" transform="rotate(-0.0 207.42532317085227 242.54487794270034)" width="15" x="199" y="225" /><rect fill="#800080" height="35" transform="rotate(-0.0 231.53445460081792 242.54487794270034)" width="15" x="223" y="225" /><rect fill="#800080" height="35" transform="rotate(-0.0 231.53445460081792 57.455122057299675)" width="15" x="223" y="40" /><rect fill="#800080" height="35" transform="rotate(-0.0 207.42532317085227 57.455122057299675)" width="15" x="199" y="40" /><rect fill="#800080" height="35" transform="rotate(-0.0 183.31619174088667 57.455122057299675)" width="15" x="175" y="40" /><rect fill="#800080" height="35" transform="rotate(-0.0 159.207060310921 57.455122057299675)" width="15" x="151" y="40" /><rect fill="#800080" height="35" transform="rotate(-0.0 135.0979288809554 57.455122057299675)" width="15" x="127" y="40" /><rect fill="#800080" height="35" transform="rotate(-0.0 110.98879745098976 57.455122057299675)" width="15" x="103" y="40" /><rect fill="#800080" height="35" transform="rotate(-0.0 86.87966602102415 57.455122057299675)" width="15" x="79" y="40" /><rect fill="#800080" height="35" transform="rotate(-0.0 62.77053459105851 57.455122057299675)" width="15" x="55" y="40" /></g><g id="Bottom_Paste" /><g id="Top_Paste" /><g id="Top_Layer"><rect fill="#FF0000" height="31" transform="rotate(-0.0 62.77053459105851 242.54487794270034)" width="11" x="57" y="227" /><rect fill="#FF0000" height="31" transform="rotate(-0.0 86.87966602102415 242.54487794270034)" width="11" x="81" y="227" /><rect fill="#FF0000" height="31" transform="rotate(-0.0 110.98879745098976 242.54487794270034)" width="11" x="105" y="227" /><rect fill="#FF0000" height="31" transform="rotate(-0.0 135.0979288809554 242.54487794270034)" width="11" x="129" y="227" /><rect fill="#FF0000" height="31" transform="rotate(-0.0 159.207060310921 242.54487794270034)" width="11" x="153" y="227" /><rect fill="#FF0000" height="31" transform="rotate(-0.0 183.31619174088667 242.54487794270034)" width="11" x="177" y="227" /><rect fill="#FF0000" height="31" transform="rotate(-0.0 207.42532317085227 242.54487794270034)" width="11" x="201" y="227" /><rect fill="#FF0000" height="31" transform="rotate(-0.0 231.53445460081792 242.54487794270034)" width="11" x="225" y="227" /><rect fill="#FF0000" height="31" transform="rotate(-0.0 231.53445460081792 57.455122057299675)" width="11" x="225" y="42" /><rect fill="#FF0000" height="31" transform="rotate(-0.0 207.42532317085227 57.455122057299675)" width="11" x="201" y="42" /><rect fill="#FF0000" height="31" transform="rotate(-0.0 183.31619174088667 57.455122057299675)" width="11" x="177" y="42" /><rect fill="#FF0000" height="31" transform="rotate(-0.0 159.207060310921 57.455122057299675)" width="11" x="153" y="42" /><rect fill="#FF0000" height="31" transform="rotate(-0.0 135.0979288809554 57.455122057299675)" width="11" x="129" y="42" /><rect fill="#FF0000" height="31" transform="rotate(-0.0 110.98879745098976 57.455122057299675)" width="11" x="105" y="42" /><rect fill="#FF0000" height="31" transform="rotate(-0.0 86.87966602102415 57.455122057299675)" width="11" x="81" y="42" /><rect fill="#FF0000" height="31" transform="rotate(-0.0 62.77053459105851 57.455122057299675)" width="11" x="57" y="42" /></g><g id="Mid-Layer_1" /><g id="Mid-Layer_2" /><g id="Mid-Layer_3" /><g id="Mid-Layer_4" /><g id="Mid-Layer_5" /><g id="Mid-Layer_6" /><g id="Mid-Layer_7" /><g id="Mid-Layer_8" /><g id="Mid-Layer_9" /><g id="Mid-Layer_10" /><g id="Mid-Layer_11" /><g id="Mid-Layer_12" /><g id="Mid-Layer_13" /><g id="Mid-Layer_14" /><g id="Mid-Layer_15" /><g id="Mid-Layer_16" /><g id="Mid-Layer_17" /><g id="Mid-Layer_18" /><g id="Mid-Layer_19" /><g id="Mid-Layer_20" /><g id="Mid-Layer_21" /><g id="Mid-Layer_22" /><g id="Mid-Layer_23" /><g id="Mid-Layer_24" /><g id="Mid-Layer_25" /><g id="Mid-Layer_26" /><g id="Mid-Layer_27" /><g id="Mid-Layer_28" /><g id="Mid-Layer_29" /><g id="Mid-Layer_30" /><g id="Bottom_Layer" /><g id="Background" /><g id="Connections" /><g id="Bottom_Overlay" /><g id="Top_Overlay"><path d="M 48.0,237.0 A 2,2 0 1,0 47.99999900000008,237.00199999966668" fill="none" stroke="#FFFF00" stroke-linecap="round" stroke-linejoin="round" stroke-width="4.339643657393813" /><line stroke="#FFFF00" stroke-linecap="round" stroke-linejoin="round" stroke-width="3.375278400195188" x1="245" x2="245" y1="220" y2="79" /><line stroke="#FFFF00" stroke-linecap="round" stroke-linejoin="round" stroke-width="3.375278400195188" x1="48" x2="48" y1="220" y2="79" /><line stroke="#FFFF00" stroke-linecap="round" stroke-linejoin="round" stroke-width="3.375278400195188" x1="48" x2="245" y1="79" y2="79" /><line stroke="#FFFF00" stroke-linecap="round" stroke-linejoin="round" stroke-width="3.375278400195188" x1="48" x2="245" y1="220" y2="220" /></g><g id="Multi-Layer" /><g id="Pad_Holes" /><g id="Via_Holes" /><g id="None"><text dominant-baseline="central" fill="white" text-anchor="middle" transform="rotate(-0.0 62.77053459105851 242.54487794270034)" x="62" y="242">1</text><text dominant-baseline="central" fill="white" text-anchor="middle" transform="rotate(-0.0 86.87966602102415 242.54487794270034)" x="86" y="242">2</text><text dominant-baseline="central" fill="white" text-anchor="middle" transform="rotate(-0.0 110.98879745098976 242.54487794270034)" x="110" y="242">3</text><text dominant-baseline="central" fill="white" text-anchor="middle" transform="rotate(-0.0 135.0979288809554 242.54487794270034)" x="135" y="242">4</text><text dominant-baseline="central" fill="white" text-anchor="middle" transform="rotate(-0.0 159.207060310921 242.54487794270034)" x="159" y="242">5</text><text dominant-baseline="central" fill="white" text-anchor="middle" transform="rotate(-0.0 183.31619174088667 242.54487794270034)" x="183" y="242">6</text><text dominant-baseline="central" fill="white" text-anchor="middle" transform="rotate(-0.0 207.42532317085227 242.54487794270034)" x="207" y="242">7</text><text dominant-baseline="central" fill="white" text-anchor="middle" transform="rotate(-0.0 231.53445460081792 242.54487794270034)" x="231" y="242">8</text><text dominant-baseline="central" fill="white" text-anchor="middle" transform="rotate(-0.0 231.53445460081792 57.455122057299675)" x="231" y="57">9</text><text dominant-baseline="central" fill="white" text-anchor="middle" transform="rotate(-0.0 207.42532317085227 57.455122057299675)" x="207" y="57">10</text><text dominant-baseline="central" fill="white" text-anchor="middle" transform="rotate(-0.0 183.31619174088667 57.455122057299675)" x="183" y="57">11</text><text dominant-baseline="central" fill="white" text-anchor="middle" transform="rotate(-0.0 159.207060310921 57.455122057299675)" x="159" y="57">12</text><text dominant-baseline="central" fill="white" text-anchor="middle" transform="rotate(-0.0 135.0979288809554 57.455122057299675)" x="135" y="57">13</text><text dominant-baseline="central" fill="white" text-anchor="middle" transform="rotate(-0.0 110.98879745098976 57.455122057299675)" x="110" y="57">14</text><text dominant-baseline="central" fill="white" text-anchor="middle" transform="rotate(-0.0 86.87966602102415 57.455122057299675)" x="86" y="57">15</text><text dominant-baseline="central" fill="white" text-anchor="middle" transform="rotate(-0.0 62.77053459105851 57.455122057299675)" x="62" y="57">16</text></g><g id="DRC_Error_Markers" /><g id="Selections" /></svg>